/* XPM */
static char * icon_xpm[] = {
"32 32 670 2",
"  	c None",
". 	c #A49845",
"+ 	c #AFA23D",
"@ 	c #847D39",
"# 	c #8E863B",
"$ 	c #988E3F",
"% 	c #A09642",
"& 	c #A19647",
"* 	c #9B9049",
"= 	c #948B4A",
"- 	c #90864D",
"; 	c #8D8552",
"> 	c #8A8155",
", 	c #887F59",
"' 	c #88815F",
") 	c #888262",
"! 	c #B7AB56",
"~ 	c #7B743A",
"{ 	c #474234",
"] 	c #333531",
"^ 	c #373834",
"/ 	c #52514C",
"( 	c #48483A",
"_ 	c #56553D",
": 	c #686643",
"< 	c #757043",
"[ 	c #888247",
"} 	c #948D48",
"| 	c #A09749",
"1 	c #A89D4A",
"2 	c #AFA450",
"3 	c #A99C4E",
"4 	c #9F944F",
"5 	c #7F7242",
"6 	c #776C41",
"7 	c #B6A955",
"8 	c #837D3E",
"9 	c #3E3F36",
"0 	c #373833",
"a 	c #4D4E49",
"b 	c #A09C93",
"c 	c #5F5E58",
"d 	c #7E7C76",
"e 	c #83817E",
"f 	c #383A35",
"g 	c #3A3B36",
"h 	c #444543",
"i 	c #393B37",
"j 	c #393A35",
"k 	c #545548",
"l 	c #BCB25F",
"m 	c #C2B661",
"n 	c #938754",
"o 	c #AEA24A",
"p 	c #B7AA41",
"q 	c #887F3F",
"r 	c #706B3E",
"s 	c #6F6B4D",
"t 	c #9F9B82",
"u 	c #5F5C50",
"v 	c #8A887B",
"w 	c #8C8B82",
"x 	c #3B3D39",
"y 	c #494A44",
"z 	c #A7A29D",
"A 	c #787672",
"B 	c #55554F",
"C 	c #999790",
"D 	c #A0995E",
"E 	c #B4A754",
"F 	c #877C46",
"G 	c #91873F",
"H 	c #897C2C",
"I 	c #8D7F2A",
"J 	c #968A2B",
"K 	c #9E9130",
"L 	c #A79A34",
"M 	c #B2A53C",
"N 	c #B3A642",
"O 	c #B1A64F",
"P 	c #ACA35A",
"Q 	c #8B834D",
"R 	c #8F8956",
"S 	c #928C68",
"T 	c #7F7962",
"U 	c #777363",
"V 	c #99957D",
"W 	c #B9AF60",
"X 	c #BFB35F",
"Y 	c #847C49",
"Z 	c #998D3C",
"` 	c #8C8130",
" .	c #7F742D",
"..	c #7C702C",
"+.	c #8B7F27",
"@.	c #786C29",
"#.	c #6A6029",
"$.	c #645C29",
"%.	c #6E6328",
"&.	c #7E7127",
"*.	c #8A7D28",
"=.	c #91842D",
"-.	c #A39532",
";.	c #AC9E3B",
">.	c #B7AA45",
",.	c #BFB34E",
"'.	c #C7BB58",
").	c #CEC261",
"!.	c #C9BE6D",
"~.	c #877C4A",
"{.	c #938731",
"].	c #8B7F2D",
"^.	c #7D7330",
"/.	c #A1963D",
"(.	c #A69B39",
"_.	c #ACA136",
":.	c #B0A438",
"<.	c #8E8437",
"[.	c #827937",
"}.	c #7C732F",
"|.	c #72692C",
"1.	c #6E662C",
"2.	c #6E642B",
"3.	c #7F7325",
"4.	c #7E7125",
"5.	c #85772A",
"6.	c #827628",
"7.	c #90822A",
"8.	c #948431",
"9.	c #867A47",
"0.	c #9A8D37",
"a.	c #998D35",
"b.	c #787144",
"c.	c #867F3F",
"d.	c #968A31",
"e.	c #7B7136",
"f.	c #807633",
"g.	c #877D32",
"h.	c #918630",
"i.	c #938832",
"j.	c #9A8E37",
"k.	c #A69B3C",
"l.	c #AB9F3B",
"m.	c #ADA136",
"n.	c #95892B",
"o.	c #746A2B",
"p.	c #84782E",
"q.	c #95882B",
"r.	c #92842E",
"s.	c #85752F",
"t.	c #857949",
"u.	c #A59A43",
"v.	c #9B8F37",
"w.	c #817837",
"x.	c #6A6A64",
"y.	c #4F4E3B",
"z.	c #89813C",
"A.	c #898881",
"B.	c #716C3A",
"C.	c #766E34",
"D.	c #7B765A",
"E.	c #837A35",
"F.	c #867C32",
"G.	c #9B9035",
"H.	c #867C31",
"I.	c #AEA236",
"J.	c #867B2E",
"K.	c #8B802E",
"L.	c #A39733",
"M.	c #958731",
"N.	c #92812F",
"O.	c #7D6F3A",
"P.	c #827646",
"Q.	c #A0943E",
"R.	c #A1973D",
"S.	c #8F8636",
"T.	c #6C6536",
"U.	c #706737",
"V.	c #9F903B",
"W.	c #42423B",
"X.	c #80783B",
"Y.	c #7D7646",
"Z.	c #676761",
"`.	c #877F39",
" +	c #827B40",
".+	c #8E8C82",
"++	c #6F6A3B",
"@+	c #A09537",
"#+	c #8D8435",
"$+	c #8C8136",
"%+	c #A09436",
"&+	c #AA9D38",
"*+	c #827233",
"=+	c #746B41",
"-+	c #817749",
";+	c #A69B43",
">+	c #8F863D",
",+	c #8B833E",
"'+	c #8E863F",
")+	c #B2A449",
"!+	c #C4B548",
"~+	c #8E813B",
"{+	c #B6A548",
"]+	c #B8A744",
"^+	c #5B5432",
"/+	c #AE9F44",
"(+	c #A0933E",
"_+	c #40413D",
":+	c #827A39",
"<+	c #938739",
"[+	c #877E34",
"}+	c #AFA443",
"|+	c #A0953E",
"1+	c #A1933B",
"2+	c #776A38",
"3+	c #797046",
"4+	c #847948",
"5+	c #C0B453",
"6+	c #9F8D41",
"7+	c #A48D3E",
"8+	c #988F42",
"9+	c #8A823F",
"0+	c #C8BB4C",
"a+	c #928944",
"b+	c #CCBF4F",
"c+	c #CCBF52",
"d+	c #908741",
"e+	c #CFC052",
"f+	c #CEC04F",
"g+	c #81783A",
"h+	c #B8AA4C",
"i+	c #9D9242",
"j+	c #948B40",
"k+	c #B9AD4B",
"l+	c #B4A849",
"m+	c #8E7F39",
"n+	c #756B41",
"o+	c #857948",
"p+	c #8B7D4A",
"q+	c #AE9B46",
"r+	c #C45E51",
"s+	c #C94D3E",
"t+	c #A59348",
"u+	c #7B7450",
"v+	c #A59C55",
"w+	c #CFC252",
"x+	c #8E8646",
"y+	c #D0C454",
"z+	c #D2C657",
"A+	c #928A47",
"B+	c #D3C65A",
"C+	c #D5C85A",
"D+	c #948B48",
"E+	c #B1A750",
"F+	c #908948",
"G+	c #AFA54E",
"H+	c #B5A951",
"I+	c #BDAF50",
"J+	c #776937",
"K+	c #7D7140",
"L+	c #827648",
"M+	c #A49746",
"N+	c #C05A37",
"O+	c #B33C32",
"P+	c #AA954B",
"Q+	c #636157",
"R+	c #5D5B47",
"S+	c #A69B52",
"T+	c #81817B",
"U+	c #8D8653",
"V+	c #BBB057",
"W+	c #827D50",
"X+	c #B6AC5E",
"Y+	c #D5C860",
"Z+	c #9B944E",
"`+	c #ABA251",
" @	c #AFA751",
".@	c #C5BD63",
"+@	c #B2A855",
"@@	c #B4A553",
"#@	c #584D29",
"$@	c #444031",
"%@	c #3C3B33",
"&@	c #AA9F4A",
"*@	c #988F44",
"=@	c #7F7650",
"-@	c #C3B251",
";@	c #8F8442",
">@	c #988C59",
",@	c #BDAE57",
"'@	c #44443E",
")@	c #81794A",
"!@	c #ACA15B",
"~@	c #66655D",
"{@	c #615E4A",
"]@	c #B1A65A",
"^@	c #807C6C",
"/@	c #7E7B55",
"(@	c #99924F",
"_@	c #D5CE75",
":@	c #BFB661",
"<@	c #958744",
"[@	c #544928",
"}@	c #454743",
"|@	c #3D3E3C",
"1@	c #B2A74B",
"2@	c #A89E47",
"3@	c #918944",
"4@	c #716C3F",
"5@	c #CEC053",
"6@	c #CABC57",
"7@	c #A4994F",
"8@	c #B7AB58",
"9@	c #B3A459",
"0@	c #DECF66",
"a@	c #7C7548",
"b@	c #948B5A",
"c@	c #BBAD60",
"d@	c #52534E",
"e@	c #68654A",
"f@	c #B2AB68",
"g@	c #C8BF78",
"h@	c #D9D284",
"i@	c #786B38",
"j@	c #514729",
"k@	c #4F514E",
"l@	c #514E42",
"m@	c #AFA247",
"n@	c #A29844",
"o@	c #898041",
"p@	c #726E3E",
"q@	c #CABD51",
"r@	c #B1A64C",
"s@	c #B4A951",
"t@	c #D3C658",
"u@	c #A9A051",
"v@	c #CABF5B",
"w@	c #DCCE63",
"x@	c #B8AE5B",
"y@	c #CBBD6A",
"z@	c #E3D46F",
"A@	c #857E4C",
"B@	c #736E4A",
"C@	c #C4BD8F",
"D@	c #C8C180",
"E@	c #D0C899",
"F@	c #6B6034",
"G@	c #595033",
"H@	c #5A5C5D",
"I@	c #645F4A",
"J@	c #B5AA50",
"K@	c #A79C48",
"L@	c #8B8341",
"M@	c #767141",
"N@	c #9E964A",
"O@	c #8A833F",
"P@	c #BAB054",
"Q@	c #CCC054",
"R@	c #968E49",
"S@	c #D5C95E",
"T@	c #D8CB60",
"U@	c #9A914D",
"V@	c #DBD067",
"W@	c #E1D46B",
"X@	c #928B4D",
"Y@	c #98914F",
"Z@	c #CDC77F",
"`@	c #BEB46F",
" #	c #C4B97A",
".#	c #5C5130",
"+#	c #55523F",
"@#	c #555757",
"##	c #524D3B",
"$#	c #BBAE55",
"%#	c #9E954C",
"&#	c #97904A",
"*#	c #8C8547",
"=#	c #847E46",
"-#	c #837D44",
";#	c #8B8449",
">#	c #99924C",
",#	c #797344",
"'#	c #ADA554",
")#	c #C2B857",
"!#	c #8D874A",
"~#	c #D8CE61",
"{#	c #D8CC64",
"]#	c #6E6A3F",
"^#	c #979052",
"/#	c #D3CB74",
"(#	c #B9AE68",
"_#	c #AE9049",
":#	c #574A2C",
"<#	c #504F43",
"[#	c #494343",
"}#	c #55342F",
"|#	c #3D3932",
"1#	c #7C743E",
"2#	c #988D39",
"3#	c #9B9040",
"4#	c #938A3E",
"5#	c #9D9342",
"6#	c #928742",
"7#	c #8D8545",
"8#	c #857F48",
"9#	c #928B4A",
"0#	c #8F8A4F",
"a#	c #9A9350",
"b#	c #7A7649",
"c#	c #A9A256",
"d#	c #B0A956",
"e#	c #6E6A40",
"f#	c #A9A251",
"g#	c #C7BD67",
"h#	c #C5B964",
"i#	c #A2904F",
"j#	c #776C4A",
"k#	c #615942",
"l#	c #5C3D3A",
"m#	c #BF3D3D",
"n#	c #9E3B39",
"o#	c #803734",
"p#	c #42433E",
"q#	c #454540",
"r#	c #42423A",
"s#	c #4A4735",
"t#	c #655F37",
"u#	c #81783C",
"v#	c #8A7F3B",
"w#	c #9C9140",
"x#	c #9C903E",
"y#	c #94883D",
"z#	c #A39644",
"A#	c #928842",
"B#	c #978F49",
"C#	c #87824D",
"D#	c #A09956",
"E#	c #918B55",
"F#	c #7B774D",
"G#	c #968E50",
"H#	c #BBAF5D",
"I#	c #D6CA6B",
"J#	c #98884B",
"K#	c #716233",
"L#	c #433C2C",
"M#	c #34342F",
"N#	c #4C3A34",
"O#	c #7E2E2B",
"P#	c #B53734",
"Q#	c #3C3D3C",
"R#	c #3A3C3A",
"S#	c #393B39",
"T#	c #383936",
"U#	c #3A3B35",
"V#	c #3B3C34",
"W#	c #3D3D33",
"X#	c #484735",
"Y#	c #67603B",
"Z#	c #847B41",
"`#	c #8E8241",
" $	c #A19546",
".$	c #998D41",
"+$	c #A39746",
"@$	c #9D9445",
"#$	c #A0964B",
"$$	c #A49A50",
"%$	c #B7AC58",
"&$	c #CDC064",
"*$	c #7B6D3E",
"=$	c #544828",
"-$	c #33332F",
";$	c #3F3E38",
">$	c #3D3D38",
",$	c #423F39",
"'$	c #3C3E3C",
")$	c #353735",
"!$	c #272928",
"~$	c #282B2A",
"{$	c #2D302F",
"]$	c #323533",
"^$	c #383A36",
"/$	c #3C3D38",
"($	c #3C3C35",
"_$	c #3D3D34",
":$	c #484637",
"<$	c #68633F",
"[$	c #867E46",
"}$	c #8E8345",
"|$	c #A39749",
"1$	c #A69A49",
"2$	c #948C48",
"3$	c #928A44",
"4$	c #BEAE52",
"5$	c #594D28",
"6$	c #36362F",
"7$	c #3D3D37",
"8$	c #3F3F3B",
"9$	c #3D3E39",
"0$	c #43433D",
"a$	c #373835",
"b$	c #262827",
"c$	c #252626",
"d$	c #2B2C2C",
"e$	c #292A2A",
"f$	c #282929",
"g$	c #252726",
"h$	c #272828",
"i$	c #2A2C2B",
"j$	c #2F3131",
"k$	c #343635",
"l$	c #3A3C39",
"m$	c #3C3E39",
"n$	c #3C3C36",
"o$	c #404036",
"p$	c #464436",
"q$	c #635E3D",
"r$	c #7E7743",
"s$	c #998F49",
"t$	c #9A8C47",
"u$	c #3B392E",
"v$	c #3A3A35",
"w$	c #44433D",
"x$	c #3E3E39",
"y$	c #3F403B",
"z$	c #706C4F",
"A$	c #2F2F2A",
"B$	c #262826",
"C$	c #282A29",
"D$	c #2A2B2A",
"E$	c #2B2C2B",
"F$	c #252625",
"G$	c #2B2D2C",
"H$	c #292B2A",
"I$	c #282928",
"J$	c #2C2E2E",
"K$	c #323535",
"L$	c #383A39",
"M$	c #3C3F3A",
"N$	c #3F423B",
"O$	c #3F3E35",
"P$	c #403F36",
"Q$	c #383833",
"R$	c #45443F",
"S$	c #40403B",
"T$	c #DED18F",
"U$	c #D9CD8D",
"V$	c #AEA473",
"W$	c #777153",
"X$	c #403F34",
"Y$	c #2A2B29",
"Z$	c #272727",
"`$	c #2B2B2B",
" %	c #2A2B2B",
".%	c #262726",
"+%	c #383C3C",
"@%	c #3E4240",
"#%	c #434441",
"$%	c #464640",
"%%	c #44433E",
"&%	c #474740",
"*%	c #E6D995",
"=%	c #EFE19B",
"-%	c #F0E2A0",
";%	c #DDCE94",
">%	c #F4E8AF",
",%	c #CFC598",
"'%	c #938D68",
")%	c #595642",
"!%	c #2E2E2A",
"~%	c #2B2B2A",
"{%	c #2C2C2A",
"]%	c #272827",
"^%	c #32302E",
"/%	c #3A332F",
"(%	c #342F2C",
"_%	c #313434",
":%	c #373A39",
"<%	c #414442",
"[%	c #4A4944",
"}%	c #44433F",
"|%	c #43433E",
"1%	c #CEC288",
"2%	c #A59E76",
"3%	c #979272",
"4%	c #A39C7A",
"5%	c #A39D7D",
"6%	c #D0C79D",
"7%	c #D7CEA1",
"8%	c #E9DFA3",
"9%	c #E5D99D",
"0%	c #B3A97B",
"a%	c #777256",
"b%	c #3C3B31",
"c%	c #3B332D",
"d%	c #4F3F32",
"e%	c #41372E",
"f%	c #2B2C2A",
"g%	c #282A2A",
"h%	c #343738",
"i%	c #3C3F3F",
"j%	c #414342",
"k%	c #494843",
"l%	c #44443F",
"m%	c #EFE199",
"n%	c #F4E597",
"o%	c #D6C989",
"p%	c #AAA275",
"q%	c #AAA27B",
"r%	c #979477",
"s%	c #68665A",
"t%	c #C1B992",
"u%	c #CBC497",
"v%	c #CEC69A",
"w%	c #E2D8A7",
"x%	c #F9EBAE",
"y%	c #D0C48E",
"z%	c #968E68",
"A%	c #615945",
"B%	c #343531",
"C%	c #2A2A2A",
"D%	c #292B2B",
"E%	c #373A3A",
"F%	c #3E4141",
"G%	c #454746",
"H%	c #474642",
"I%	c #4B4A45",
"J%	c #BCB180",
"K%	c #D1C284",
"L%	c #F0DD92",
"M%	c #DDCA7F",
"N%	c #8B8463",
"O%	c #837E68",
"P%	c #7F7C61",
"Q%	c #737260",
"R%	c #8E8A6F",
"S%	c #918B71",
"T%	c #C0BA95",
"U%	c #FBF6B6",
"V%	c #FEF5B2",
"W%	c #FCEAA9",
"X%	c #625D4B",
"Y%	c #2C2D2D",
"Z%	c #2E3030",
"`%	c #3E4241",
" &	c #424545",
".&	c #474846",
"+&	c #4B4A46",
"@&	c #CFC488",
"#&	c #CAC187",
"$&	c #F3EAA0",
"%&	c #D6CC8D",
"&&	c #BEB885",
"*&	c #BDB683",
"=&	c #A19B78",
"-&	c #A19D7F",
";&	c #EAE6AF",
">&	c #FDF0A9",
",&	c #7B7664",
"'&	c #60615C",
")&	c #454747",
"!&	c #444747",
"~&	c #4A4C4B",
"{&	c #E3DC9F",
"]&	c #F4F2AF",
"^&	c #FEFAB2",
"/&	c #FBF7AD",
"(&	c #E3DE9D",
"_&	c #C3BD88",
":&	c #E3DD9F",
"<&	c #7B7768",
"                      . + @ # $ % & * = - ; > , ' )             ",
"                      ! ~ { ] ^ / ( _ : < [ } | 1 2 3 4 5 6     ",
"                      7 8 9 0 a b c d e f g h i j k l m n       ",
"                      o p q r s t u v w x y z A B C D E F       ",
"                    G H I J K L M N O P Q R S T U V W X Y       ",
"                  Z `  ...+.@.#.$.%.&.*.=.-.;.>.,.'.).!.~.      ",
"                  {.].^./.(._.:.<.[.}.|.1.2.3.4.5.6.7.8.9.      ",
"                0.a.b.c.d.e.f.g.h.i.j.k.l.m.n.o.p.q.r.s.t.      ",
"              u.v.w.x.y.z.A.B.C.D.E.F.G.H.I.J.K.L.M.N.O.P.      ",
"              Q.R.S.T.U.V.W.X.Y.Z.`. +.+++@+#+$+%+&+*+=+-+      ",
"              ;+>+,+'+)+!+~+{+]+^+/+(+_+:+<+[+}+|+1+2+3+4+      ",
"            5+6+7+8+9+0+0+a+b+c+d+e+f+g+h+i+j+k+l+m+n+o+p+      ",
"            q+r+s+t+u+v+w+x+y+z+A+B+C+D+E+F+G+H+I+J+K+L+        ",
"            M+N+O+P+Q+R+S+T+U+V+W+X+Y+Z+`+ @.@+@@@#@$@%@        ",
"            &@*@=@-@;@>@,@'@)@!@~@{@]@^@/@(@_@:@<@[@}@|@        ",
"          1@2@3@4@5@6@7@B+8@9@0@a@b@c@d@e@f@g@h@i@j@k@l@        ",
"          m@n@o@p@q@r@s@t@u@v@w@x@y@z@A@B@C@D@E@F@G@H@I@        ",
"          J@K@L@M@N@O@P@Q@R@S@T@U@V@W@X@Y@Z@`@ #.#+#@###        ",
"          $#%#&#*#=#-#;#>#,#'#)#!#~#{#]#^#/#(#_#:#<#[#}#|#      ",
"          1#2#3#4#5#6#7#8#9#0#a#b#c#d#e#f#g#h#i#j#k#l#m#n#o#    ",
"      p#q#r#s#t#u#v#w#x#y#z#A#B#C#D#E#F#G#H#I#J#K#L#M#N#O#P#    ",
"      Q#R#S#T#U#V#W#X#Y#Z#`# $z#.$+$@$#$$$%$&$*$=$-$;$>$,$      ",
"      '$)$!$!$~${$]$^$/$($_$:$<$[$}$|$1$2$3$4$5$6$7$8$9$0$      ",
"      a$b$c$d$e$f$g$h$i$j$k$l$m$n$o$p$q$r$s$t$u$v$w$x$y$        ",
"    z$A$B$C$D$E$C$F$e$G$H$I$f$J$K$L$M$N$9 O$P$Q$R$'@S$          ",
"    T$U$V$W$X$Y$Z$f$d$`$ %D$.%d$d$d$E$j$+%@%#%$%$%%%&%          ",
"    *%=%-%;%>%,%'%)%!%~%{%]%C$^%/%(%~%H$_%:%<%[%}%|%            ",
"    1%2%3%4%5%6%7%8%9%0%a%b%D$c%d%e%f%g%h%i%j%k%l%              ",
"    m%n%o%p%q%r%s%t%u%v%w%x%y%z%A%B%C%D%E%F%G%H%I%              ",
"      J%K%L%M%N%O%P%Q%R%S%T%U%V%W%X%Y%Z%`% &.&+&                ",
"              @&#&$&%&&&*&=&-&;&>&,&'&  )&!&~&                  ",
"                    {&]&^&/&(&_&:&<&                            "};
